<svg xmlns="http://www.w3.org/2000/svg" xmlns:xlink="http://www.w3.org/1999/xlink" viewBox="0 0 125.68 54.43"><defs><mask id="a" x="24.51" y="0" width="15.94" height="13.55" maskUnits="userSpaceOnUse"><g transform="translate(-2 -2.09)"><polygon points="26.51 2.09 42.45 2.09 42.45 15.64 26.51 15.64 26.51 2.09" style="fill:#fff"/></g></mask><mask id="b" x="67.03" y="15.08" width="30.29" height="39.35" maskUnits="userSpaceOnUse"><g transform="translate(-2 -2.09)"><polygon points="99.33 56.52 69.03 56.52 69.03 17.17 99.33 17.17 99.33 56.52" style="fill:#fff"/></g></mask></defs><title>yopa-logo-navy-orange</title><path d="M29.54,36c0,1.16.3,1.52,1.71,1.52H33l.52.5v7.48L33,46,12.59,46l-.52-.5V38.06l.51-.5h1.71c1.48,0,1.7-.37,1.7-1.53l0-3.89-.06-.23L5.2,11.65c-.37-.8-.67-1-1.48-1H2.53L2,10.14V2.66l.51-.5,21,0,.52.5V10.1l-.51.5H21.34c-.81,0-1.33.36-.81,1.16l8.94,17.71.05.22Z" transform="translate(-2 -2.09)" style="fill:#1e2d41"/><g style="mask:url(#a)"><path d="M38.15,10.58h3.79l.51-.5V2.59l-.52-.5L27,2.11l-.51.5V10.1l.52.5h3.78a1,1,0,0,1,.92.56L34,15.64h.92l2.28-4.5a1,1,0,0,1,.92-.56" transform="translate(-2 -2.09)" style="fill:#ff6933"/></g><path d="M51.16,38.43c-3,0-6-2-6-6.54,0-3.23,1.85-6.48,6-6.48,2.77,0,6,1.7,6,6.48,0,3.25-1.85,6.54-6,6.54m0-21.42c-8.7,0-15.26,6.4-15.26,14.89s6.56,14.94,15.26,14.94A15.47,15.47,0,0,0,62,42.63a14.74,14.74,0,0,0,4.4-10.74A14.66,14.66,0,0,0,62,21.18,15.52,15.52,0,0,0,51.16,17" transform="translate(-2 -2.09)" style="fill:#1e2d41"/><g style="mask:url(#b)"><path d="M84.18,25.41c4.47,0,6.05,3.49,6.05,6.48,0,4.83-3.26,6.54-6.05,6.54-3,0-6-2-6-6.54,0-4.78,3.23-6.48,6-6.48m1.75-8.24A11.14,11.14,0,0,0,78,20.05V18.34l-.52-.51h-8l-.51.51V56l.52.5h8.23l.51-.5V44.33a11.13,11.13,0,0,0,7.3,2.28,13.27,13.27,0,0,0,9.89-4.18,15.47,15.47,0,0,0,3.84-10.6c0-8.77-5.38-14.67-13.39-14.67" transform="translate(-2 -2.09)" style="fill:#1e2d41"/></g><path d="M113.52,40c-2.78,0-3-1.91-3-2.5,0-1.53.94-2.42,2.88-2.72l4.93-.77v.83c0,4.26-2.62,5.15-4.81,5.15m13.85,1.38V28c0-3.29-1.24-11-12.77-11-8.53,0-12.19,5.44-12.64,9.22l.4.6,7.11,1.42.61-.39a4.23,4.23,0,0,1,4.46-3.61c1.89,0,3.79.82,3.79,2.66,0,.61-.2,1.33-1.75,1.56l-6.61,1c-5.3.76-8.6,4.07-8.6,8.63,0,4.32,3.46,8.69,10.06,8.69a9.5,9.5,0,0,0,7.6-3.2,9.32,9.32,0,0,0,.22,1.93l.52.5h7.4l.51-.5a25.3,25.3,0,0,1-.31-4.09" transform="translate(-2 -2.09)" style="fill:#1e2d41"/></svg>